<svg width="24" height="25" viewBox="0 0 24 25" fill="none" xmlns="http://www.w3.org/2000/svg">
<path d="M8 17.6416L12 21.6416L16 17.6416" stroke="#2791E0" stroke-width="1.5" stroke-linecap="round" stroke-linejoin="round"/>
<path d="M12 12.6416V21.6416" stroke="#2791E0" stroke-width="1.5" stroke-linecap="round" stroke-linejoin="round"/>
<path d="M20.8792 18.7315C21.7486 18.1202 22.4006 17.2477 22.7405 16.2407C23.0804 15.2337 23.0906 14.1446 22.7696 13.1314C22.4486 12.1182 21.8131 11.2336 20.9553 10.6061C20.0975 9.97857 19.062 9.6407 17.9992 9.64153H16.7392C16.4384 8.46941 15.8757 7.38078 15.0933 6.45761C14.311 5.53445 13.3293 4.80079 12.2224 4.31189C11.1155 3.82298 9.91204 3.59156 8.70273 3.63505C7.49341 3.67854 6.30971 3.99581 5.24075 4.56296C4.17179 5.13012 3.24543 5.93238 2.53139 6.90936C1.81735 7.88634 1.33425 9.01258 1.11846 10.2033C0.902671 11.394 0.959811 12.6181 1.28558 13.7836C1.61135 14.949 2.19726 16.0253 2.9992 16.9315" stroke="#2791E0" stroke-width="1.5" stroke-linecap="round" stroke-linejoin="round"/>
</svg>
