<svg width="20" height="21" viewBox="0 0 20 21" fill="none" xmlns="http://www.w3.org/2000/svg">
<path d="M8.33398 11.2636C8.69186 11.7421 9.14845 12.138 9.67278 12.4244C10.1971 12.7109 10.7769 12.8812 11.3729 12.9239C11.9688 12.9666 12.567 12.8806 13.1268 12.6718C13.6866 12.463 14.1949 12.1362 14.6173 11.7136L17.1173 9.21364C17.8763 8.4278 18.2963 7.37529 18.2868 6.2828C18.2773 5.19032 17.8391 4.14527 17.0666 3.37273C16.294 2.6002 15.249 2.16199 14.1565 2.1525C13.064 2.14301 12.0115 2.56298 11.2257 3.32198L9.79232 4.74698" stroke="#2791E0" stroke-width="1.5" stroke-linecap="round" stroke-linejoin="round"/>
<path d="M11.6659 9.59768C11.308 9.11924 10.8514 8.72336 10.3271 8.4369C9.80274 8.15043 9.22293 7.98008 8.62698 7.9374C8.03103 7.89472 7.43287 7.98071 6.87307 8.18953C6.31327 8.39835 5.80493 8.72512 5.38252 9.14768L2.88252 11.6477C2.12353 12.4335 1.70355 13.486 1.71305 14.5785C1.72254 15.671 2.16075 16.7161 2.93328 17.4886C3.70581 18.2611 4.75087 18.6993 5.84335 18.7088C6.93584 18.7183 7.98835 18.2983 8.77419 17.5393L10.1992 16.1143" stroke="#2791E0" stroke-width="1.5" stroke-linecap="round" stroke-linejoin="round"/>
</svg>
