<svg width="52" height="53" viewBox="0 0 52 53" fill="none" xmlns="http://www.w3.org/2000/svg">
<rect x="0.5" y="1.1416" width="51" height="51" rx="25.5" fill="white"/>
<path d="M32 22.6416C32 21.0503 31.3679 19.5242 30.2426 18.399C29.1174 17.2737 27.5913 16.6416 26 16.6416C24.4087 16.6416 22.8826 17.2737 21.7574 18.399C20.6321 19.5242 20 21.0503 20 22.6416C20 29.6416 17 31.6416 17 31.6416H35C35 31.6416 32 29.6416 32 22.6416Z" stroke="#005AAA" stroke-width="1.5" stroke-linecap="round" stroke-linejoin="round"/>
<path d="M27.7295 35.6416C27.5537 35.9447 27.3014 36.1963 26.9978 36.3711C26.6941 36.546 26.3499 36.6381 25.9995 36.6381C25.6492 36.6381 25.3049 36.546 25.0013 36.3711C24.6977 36.1963 24.4453 35.9447 24.2695 35.6416" stroke="#005AAA" stroke-width="1.5" stroke-linecap="round" stroke-linejoin="round"/>
<rect x="0.5" y="1.1416" width="51" height="51" rx="25.5" stroke="#C9DCEE"/>
</svg>
