<svg width="14" height="16" viewBox="0 0 14 16" fill="none" xmlns="http://www.w3.org/2000/svg">
<path d="M7 16C7.48168 16.0006 7.95158 15.8469 8.34438 15.5601C8.73718 15.2734 9.03337 14.8679 9.19178 14.4H4.80822C4.96663 14.8679 5.26282 15.2734 5.65562 15.5601C6.04842 15.8469 6.51832 16.0006 7 16ZM12.4444 10.0688V6.4C12.4444 3.8264 10.745 1.6584 8.44278 1.0064C8.21489 0.416 7.658 0 7 0C6.342 0 5.78511 0.416 5.55722 1.0064C3.255 1.6592 1.55556 3.8264 1.55556 6.4V10.0688L0.22789 11.4344C0.155523 11.5086 0.0981327 11.5967 0.059022 11.6938C0.0199112 11.7909 -0.000147349 11.8949 8.14857e-07 12V12.8C8.14857e-07 13.0122 0.081945 13.2157 0.227807 13.3657C0.373668 13.5157 0.571499 13.6 0.777779 13.6H13.2222C13.4285 13.6 13.6263 13.5157 13.7722 13.3657C13.9181 13.2157 14 13.0122 14 12.8V12C14.0001 11.8949 13.9801 11.7909 13.941 11.6938C13.9019 11.5967 13.8445 11.5086 13.7721 11.4344L12.4444 10.0688Z" fill="black"/>
</svg>
