<svg width="20" height="18" viewBox="0 0 20 18" fill="none" xmlns="http://www.w3.org/2000/svg">
<path id="Vector" d="M19.5 8.99965C19.5002 11.3658 18.5686 13.6368 16.9069 15.3212C15.2451 17.0056 12.9869 17.9678 10.6209 17.9996H10.5C8.20147 18.0054 5.98901 17.1258 4.32187 15.5434C4.25028 15.4757 4.19273 15.3945 4.1525 15.3046C4.11227 15.2146 4.09016 15.1176 4.08741 15.0191C4.08467 14.9206 4.10136 14.8225 4.13652 14.7305C4.17168 14.6384 4.22463 14.5542 4.29234 14.4826C4.36006 14.411 4.44121 14.3535 4.53116 14.3132C4.62112 14.273 4.71812 14.2509 4.81662 14.2482C4.91512 14.2454 5.0132 14.2621 5.10525 14.2973C5.19731 14.3324 5.28153 14.3854 5.35312 14.4531C6.42544 15.4644 7.77195 16.1372 9.22447 16.3877C10.677 16.6381 12.1711 16.4551 13.5202 15.8613C14.8692 15.2675 16.0134 14.2894 16.8098 13.0492C17.6062 11.8089 18.0195 10.3614 17.9981 8.88765C17.9766 7.41386 17.5214 5.97906 16.6892 4.76249C15.8571 3.54591 14.6849 2.6015 13.3192 2.04724C11.9534 1.49298 10.4546 1.35343 9.00998 1.64603C7.56537 1.93864 6.239 2.65042 5.19656 3.69246C5.1889 3.70074 5.18076 3.70857 5.17219 3.7159L2.68031 5.99965H5.25C5.44891 5.99965 5.63968 6.07866 5.78033 6.21932C5.92098 6.35997 6 6.55073 6 6.74965C6 6.94856 5.92098 7.13932 5.78033 7.27998C5.63968 7.42063 5.44891 7.49965 5.25 7.49965H0.75C0.551088 7.49965 0.360322 7.42063 0.21967 7.27998C0.0790176 7.13932 0 6.94856 0 6.74965V2.24965C0 2.05073 0.0790176 1.85997 0.21967 1.71932C0.360322 1.57866 0.551088 1.49965 0.75 1.49965C0.948912 1.49965 1.13968 1.57866 1.28033 1.71932C1.42098 1.85997 1.5 2.05073 1.5 2.24965V5.0434L4.14844 2.62465C5.40842 1.36956 7.012 0.515896 8.75675 0.171424C10.5015 -0.173048 12.3092 0.00711346 13.9516 0.689165C15.5941 1.37122 16.9976 2.52458 17.9851 4.00366C18.9726 5.48274 19.4997 7.22122 19.5 8.99965Z" fill="#2791E0"/>
</svg>
