<svg width="20" height="21" viewBox="0 0 20 21" fill="none" xmlns="http://www.w3.org/2000/svg">
<path d="M8.75 17.3057C8.75 17.4714 8.68415 17.6304 8.56694 17.7476C8.44973 17.8648 8.29076 17.9307 8.125 17.9307H3.75C3.41848 17.9307 3.10054 17.799 2.86612 17.5645C2.6317 17.3301 2.5 17.0122 2.5 16.6807V4.18066C2.5 3.84914 2.6317 3.5312 2.86612 3.29678C3.10054 3.06236 3.41848 2.93066 3.75 2.93066H8.125C8.29076 2.93066 8.44973 2.99651 8.56694 3.11372C8.68415 3.23093 8.75 3.3899 8.75 3.55566C8.75 3.72142 8.68415 3.8804 8.56694 3.99761C8.44973 4.11482 8.29076 4.18066 8.125 4.18066H3.75V16.6807H8.125C8.29076 16.6807 8.44973 16.7465 8.56694 16.8637C8.68415 16.9809 8.75 17.1399 8.75 17.3057ZM17.3172 9.98848L14.1922 6.86348C14.0749 6.7462 13.9159 6.68032 13.75 6.68032C13.5841 6.68032 13.4251 6.7462 13.3078 6.86348C13.1905 6.98075 13.1247 7.13981 13.1247 7.30566C13.1247 7.47152 13.1905 7.63058 13.3078 7.74785L15.3664 9.80566H8.125C7.95924 9.80566 7.80027 9.87151 7.68306 9.98872C7.56585 10.1059 7.5 10.2649 7.5 10.4307C7.5 10.5964 7.56585 10.7554 7.68306 10.8726C7.80027 10.9898 7.95924 11.0557 8.125 11.0557H15.3664L13.3078 13.1135C13.1905 13.2308 13.1247 13.3898 13.1247 13.5557C13.1247 13.7215 13.1905 13.8806 13.3078 13.9979C13.4251 14.1151 13.5841 14.181 13.75 14.181C13.9159 14.181 14.0749 14.1151 14.1922 13.9979L17.3172 10.8729C17.3753 10.8148 17.4214 10.7459 17.4529 10.67C17.4843 10.5941 17.5005 10.5128 17.5005 10.4307C17.5005 10.3485 17.4843 10.2672 17.4529 10.1913C17.4214 10.1155 17.3753 10.0465 17.3172 9.98848Z" fill="#041427"/>
</svg>
