<svg width="24" height="24" viewBox="0 0 24 24" fill="none" xmlns="http://www.w3.org/2000/svg">
<g id="system-uicons:clipboard-notes">
<g id="Group">
<path id="Vector" d="M8.5692 5.14258H6.28348C5.98038 5.14258 5.68969 5.26299 5.47536 5.47731C5.26103 5.69164 5.14062 5.98233 5.14062 6.28544V18.8569C5.14062 19.16 5.26103 19.4507 5.47536 19.665C5.68969 19.8793 5.98038 19.9997 6.28348 19.9997H17.7121C18.0152 19.9997 18.3058 19.8793 18.5202 19.665C18.7345 19.4507 18.8549 19.16 18.8549 18.8569V6.28544C18.8549 5.98233 18.7345 5.69164 18.5202 5.47731C18.3058 5.26299 18.0152 5.14258 17.7121 5.14258H15.4263" stroke="#005AAA" stroke-width="1.5" stroke-linecap="round" stroke-linejoin="round"/>
<path id="Vector_2" d="M10.8583 9.71429H16.5725M10.8583 13.1429H16.5725M10.8583 16.5714H16.5725M7.42969 9.71429H8.57254M7.42969 13.1429H8.57254M7.42969 16.5714H8.57254M9.7154 4H14.2868C14.5899 4 14.8806 4.12041 15.095 4.33474C15.3093 4.54906 15.4297 4.83975 15.4297 5.14286C15.4297 5.44596 15.3093 5.73665 15.095 5.95098C14.8806 6.16531 14.5899 6.28571 14.2868 6.28571H9.7154C9.4123 6.28571 9.12161 6.16531 8.90728 5.95098C8.69295 5.73665 8.57254 5.44596 8.57254 5.14286C8.57254 4.83975 8.69295 4.54906 8.90728 4.33474C9.12161 4.12041 9.4123 4 9.7154 4Z" stroke="#005AAA" stroke-width="1.5" stroke-linecap="round" stroke-linejoin="round"/>
</g>
</g>
</svg>
