<svg width="20" height="21" viewBox="0 0 20 21" fill="none" xmlns="http://www.w3.org/2000/svg">
<path d="M13.3327 13.7635L9.99935 10.4302L6.66602 13.7635" stroke="#7D848D" stroke-width="1.5" stroke-linecap="round" stroke-linejoin="round"/>
<path d="M10 10.4302V17.9302" stroke="#7D848D" stroke-width="1.5" stroke-linecap="round" stroke-linejoin="round"/>
<path d="M16.9909 15.7551C17.8037 15.312 18.4458 14.6108 18.8158 13.7623C19.1858 12.9137 19.2627 11.9661 19.0344 11.069C18.8061 10.1719 18.2855 9.37634 17.5548 8.80795C16.8241 8.23957 15.925 7.93069 14.9992 7.93008H13.9492C13.697 6.95445 13.2269 6.04869 12.5742 5.28091C11.9215 4.51312 11.1033 3.90329 10.181 3.49725C9.2587 3.09122 8.25636 2.89955 7.24933 2.93665C6.2423 2.97375 5.25679 3.23866 4.36688 3.71147C3.47697 4.18427 2.70583 4.85267 2.11142 5.6664C1.51701 6.48013 1.11481 7.41803 0.935051 8.40958C0.755293 9.40112 0.802655 10.4205 1.07358 11.3911C1.3445 12.3617 1.83194 13.2583 2.49923 14.0134" stroke="#7D848D" stroke-width="1.5" stroke-linecap="round" stroke-linejoin="round"/>
<path d="M13.3327 13.7635L9.99935 10.4302L6.66602 13.7635" stroke="#7D848D" stroke-width="1.5" stroke-linecap="round" stroke-linejoin="round"/>
</svg>
